<?xml version="1.0" encoding="UTF-8" standalone="no"?>
<svg
   xmlns:dc="http://purl.org/dc/elements/1.1/"
   xmlns:cc="http://creativecommons.org/ns#"
   xmlns:rdf="http://www.w3.org/1999/02/22-rdf-syntax-ns#"
   xmlns:svg="http://www.w3.org/2000/svg"
   xmlns="http://www.w3.org/2000/svg"
   xmlns:sodipodi="http://sodipodi.sourceforge.net/DTD/sodipodi-0.dtd"
   xmlns:inkscape="http://www.inkscape.org/namespaces/inkscape"
   viewBox="0 0 128 128"
   id="svg2"
   version="1.1"
   inkscape:version="0.92.3 (2405546, 2018-03-11)"
   sodipodi:docname="touchpad-indicator-light-disabled.svg"
   width="128"
   height="128">
  <metadata
     id="metadata16">
    <rdf:RDF>
      <cc:Work
         rdf:about="">
        <dc:format>image/svg+xml</dc:format>
        <dc:type
           rdf:resource="http://purl.org/dc/dcmitype/StillImage" />
        <dc:title />
      </cc:Work>
    </rdf:RDF>
  </metadata>
  <defs
     id="defs14" />
  <sodipodi:namedview
     pagecolor="#ffffff"
     bordercolor="#666666"
     borderopacity="1"
     objecttolerance="10"
     gridtolerance="10"
     guidetolerance="10"
     inkscape:pageopacity="0"
     inkscape:pageshadow="2"
     inkscape:window-width="1920"
     inkscape:window-height="1023"
     id="namedview12"
     showgrid="false"
     fit-margin-top="0"
     fit-margin-left="0"
     fit-margin-right="0"
     fit-margin-bottom="0"
     inkscape:zoom="1"
     inkscape:cx="-77.465303"
     inkscape:cy="53.209639"
     inkscape:window-x="0"
     inkscape:window-y="33"
     inkscape:window-maximized="1"
     inkscape:current-layer="svg2" />
  <path
     d="M 31.342731,16.499999 C 23.178413,16.499999 16.5,23.170246 16.5,31.342725 V 96.657266 C 16.5,104.82159 23.170248,111.5 31.342731,111.5 h 65.31454 C 104.82159,111.5 111.5,104.82976 111.5,96.657266 V 31.342725 c 0,-8.164315 -6.67024,-14.842726 -14.842729,-14.842726 z m 0,5.93546 h 65.31454 c 4.988399,0 8.907269,3.918868 8.907269,8.907266 v 65.314541 c 0,4.988404 -3.91887,8.907274 -8.907269,8.907274 h -65.31454 c -4.988398,0 -8.907271,-3.91887 -8.907271,-8.907274 V 31.342725 c 0,-4.988398 3.918873,-8.907266 8.907271,-8.907266 z"
     style="color:#000000;display:inline;visibility:visible;fill:#ececec;fill-opacity:1;stroke:none;stroke-width:5.9375"
     id="path4"
     inkscape:connector-curvature="0" />
  <rect
     width="94.999992"
     height="5.9354582"
     x="16.5"
     y="81.814545"
     style="fill:#ececec;fill-opacity:1;stroke:none;stroke-width:5.9375"
     id="rect6" />
  <rect
     y="-69.935455"
     x="81.814545"
     height="11.879084"
     width="29.685457"
     transform="rotate(90)"
     style="fill:#ececec;fill-opacity:1;stroke:none;stroke-width:5.9375"
     id="rect8" />
  <path
     d="m 40.26633,28.379078 h 5.935458 c 0.06531,0 0.122466,0 0.187779,0 1.510399,0.06531 3.028961,0.759282 4.082159,1.8533 L 64.008164,43.760653 77.732381,30.232378 c 1.575718,-1.363441 2.653402,-1.77982 4.082162,-1.836971 H 87.75 v 5.935458 c 0,1.698179 -0.204131,3.265729 -1.485906,4.449553 L 72.727657,52.316857 86.084477,65.673681 C 87.20299,66.800357 87.75,68.343413 87.75,69.943619 v 5.935458 h -5.935457 c -1.575718,0 -3.15143,-0.555176 -4.269942,-1.66552 L 64.008164,60.685284 50.471726,74.213557 c -1.118512,1.126676 -2.694224,1.66552 -4.269938,1.66552 H 40.26633 v -5.935458 c 0,-1.575713 0.555174,-3.151426 1.66552,-4.261773 L 55.468289,52.325023 41.931851,38.796748 C 40.682709,37.670072 40.1357,36.004551 40.26633,34.347195 v -5.935459 z"
     style="color:#bebebe;fill:#ef555c;fill-opacity:1;stroke-width:5.9375"
     id="path10"
     inkscape:connector-curvature="0" />
</svg>
